<?xml version="1.0" encoding="UTF-8" standalone="no"?><!DOCTYPE svg PUBLIC "-//W3C//DTD SVG 1.1//EN" "http://www.w3.org/Graphics/SVG/1.1/DTD/svg11.dtd"><svg width="100%" height="24px" viewBox="0 0 57 10" version="1.1" xmlns="http://www.w3.org/2000/svg" xmlns:xlink="http://www.w3.org/1999/xlink" xml:space="preserve" xmlns:serif="http://www.serif.com/" style="fill-rule:evenodd;clip-rule:evenodd;stroke-linejoin:round;stroke-miterlimit:1.41421;"><g><path d="M4.04,9.774c-0.784,0 -1.543,-0.101 -2.275,-0.304c-0.733,-0.202 -1.321,-0.465 -1.765,-0.789l0.78,-1.647c0.425,0.297 0.93,0.535 1.516,0.715c0.586,0.18 1.172,0.27 1.758,0.27c0.652,0 1.134,-0.092 1.446,-0.277c0.312,-0.184 0.468,-0.43 0.468,-0.736c0,-0.225 -0.092,-0.411 -0.277,-0.56c-0.184,-0.148 -0.42,-0.268 -0.708,-0.357c-0.289,-0.091 -0.679,-0.189 -1.17,-0.298c-0.756,-0.171 -1.375,-0.342 -1.857,-0.512c-0.482,-0.172 -0.895,-0.446 -1.24,-0.824c-0.345,-0.378 -0.518,-0.882 -0.518,-1.512c0,-0.549 0.156,-1.046 0.468,-1.492c0.312,-0.445 0.782,-0.799 1.411,-1.059c0.628,-0.262 1.396,-0.392 2.303,-0.392c0.633,0 1.252,0.072 1.857,0.216c0.605,0.144 1.134,0.351 1.588,0.621l-0.709,1.661c-0.917,-0.496 -1.833,-0.743 -2.75,-0.743c-0.643,0 -1.118,0.099 -1.425,0.297c-0.307,0.198 -0.46,0.459 -0.46,0.783c0,0.324 0.177,0.565 0.531,0.722c0.355,0.158 0.896,0.313 1.623,0.466c0.756,0.171 1.375,0.342 1.857,0.513c0.482,0.171 0.896,0.441 1.24,0.81c0.345,0.369 0.518,0.868 0.518,1.499c0,0.54 -0.158,1.032 -0.475,1.478c-0.317,0.445 -0.791,0.798 -1.425,1.059c-0.633,0.261 -1.403,0.392 -2.31,0.392Z" style="fill-rule:nonzero;"/><path d="M13.608,0.162c0.879,0 1.642,0.139 2.289,0.419c0.648,0.278 1.146,0.675 1.496,1.188c0.349,0.513 0.524,1.12 0.524,1.822c0,0.693 -0.175,1.298 -0.524,1.816c-0.35,0.517 -0.848,0.913 -1.496,1.188c-0.647,0.274 -1.41,0.411 -2.289,0.411l-1.999,0l0,2.606l-2.296,0l0,-9.45l4.295,0Zm-0.128,5.063c0.69,0 1.215,-0.142 1.574,-0.426c0.359,-0.283 0.538,-0.686 0.538,-1.208c0,-0.531 -0.179,-0.938 -0.538,-1.222c-0.359,-0.283 -0.884,-0.425 -1.574,-0.425l-1.871,0l0,3.281l1.871,0Z" style="fill-rule:nonzero;"/><path d="M25.106,7.587l-4.607,0l-0.879,2.025l-2.353,0l4.423,-9.45l2.268,0l4.437,9.45l-2.41,0l-0.879,-2.025Zm-0.723,-1.66l-1.573,-3.618l-1.574,3.618l3.147,0Z" style="fill-rule:nonzero;"/><path d="M33.533,9.774c-1.011,0 -1.926,-0.209 -2.743,-0.628c-0.818,-0.418 -1.46,-0.999 -1.928,-1.741c-0.468,-0.743 -0.702,-1.582 -0.702,-2.518c0,-0.936 0.234,-1.775 0.702,-2.518c0.468,-0.742 1.11,-1.323 1.928,-1.741c0.817,-0.419 1.736,-0.628 2.757,-0.628c0.86,0 1.637,0.144 2.332,0.432c0.694,0.288 1.278,0.702 1.75,1.242l-1.474,1.296c-0.671,-0.738 -1.503,-1.107 -2.495,-1.107c-0.614,0 -1.162,0.128 -1.644,0.385c-0.482,0.256 -0.858,0.614 -1.127,1.073c-0.269,0.459 -0.404,0.981 -0.404,1.566c0,0.585 0.135,1.107 0.404,1.566c0.269,0.459 0.645,0.817 1.127,1.073c0.482,0.257 1.03,0.385 1.644,0.385c0.992,0 1.824,-0.374 2.495,-1.12l1.474,1.296c-0.472,0.548 -1.058,0.967 -1.757,1.255c-0.7,0.288 -1.479,0.432 -2.339,0.432Z" style="fill-rule:nonzero;"/><path d="M46.347,7.857l0,1.755l-7.683,0l0,-9.45l7.499,0l0,1.755l-5.217,0l0,2.052l4.607,0l0,1.701l-4.607,0l0,2.187l5.401,0Z" style="fill-rule:nonzero;"/><path d="M53.987,9.612l-1.913,-2.632l-0.114,0l-1.999,0l0,2.632l-2.296,0l0,-9.45l4.295,0c0.879,0 1.642,0.139 2.289,0.419c0.648,0.278 1.146,0.675 1.496,1.188c0.35,0.513 0.524,1.12 0.524,1.822c0,0.702 -0.177,1.307 -0.531,1.816c-0.355,0.508 -0.858,0.898 -1.51,1.168l2.226,3.037l-2.467,0Zm-0.042,-6.021c0,-0.531 -0.18,-0.938 -0.539,-1.222c-0.359,-0.283 -0.884,-0.425 -1.573,-0.425l-1.872,0l0,3.294l1.872,0c0.689,0 1.214,-0.144 1.573,-0.432c0.359,-0.288 0.539,-0.693 0.539,-1.215Z" style="fill-rule:nonzero;"/></g></svg>